HIERARCHY
ROOT Hips
{
  OFFSET 1.73907 43.2358 0.0522707
  CHANNELS 6 Xposition Yposition Zposition Zrotation Xrotation Yrotation
  JOINT Bip01_Pelvis
  {
    OFFSET 0 0 0
    CHANNELS 6 Xposition Yposition Zposition Zrotation Xrotation Yrotation
    JOINT BN_Tail_01
    {
      OFFSET -2.28979 -2.39917 0
      CHANNELS 6 Xposition Yposition Zposition Zrotation Xrotation Yrotation
      JOINT BN_Tail_02
      {
        OFFSET 9.67405 0 0
        CHANNELS 6 Xposition Yposition Zposition Zrotation Xrotation Yrotation
        JOINT BN_Tail_03
        {
          OFFSET 10.5192 0 -1.14441e-005
          CHANNELS 6 Xposition Yposition Zposition Zrotation Xrotation Yrotation
          JOINT BN_Tail_04
          {
            OFFSET 8.16754 0 0
            CHANNELS 6 Xposition Yposition Zposition Zrotation Xrotation Yrotation
            End Site
            {
              OFFSET 0 0 0
            }
          }
        }
      }
    }
    JOINT Bip01_Spine
    {
      OFFSET 2.25317 -0.00479889 0
      CHANNELS 6 Xposition Yposition Zposition Zrotation Xrotation Yrotation
      JOINT Bip01_R_Thigh
      {
        OFFSET -2.32652 -0.461891 -2.25534
        CHANNELS 6 Xposition Yposition Zposition Zrotation Xrotation Yrotation
        JOINT Bip01_R_Calf
        {
          OFFSET 9.47902 0 0
          CHANNELS 6 Xposition Yposition Zposition Zrotation Xrotation Yrotation
          JOINT Bip01_R_Foot
          {
            OFFSET 8.42616 0 0
            CHANNELS 6 Xposition Yposition Zposition Zrotation Xrotation Yrotation
            JOINT Bip01_R_Toe1
            {
              OFFSET 1.4015 3.97627 -1.33795
              CHANNELS 6 Xposition Yposition Zposition Zrotation Xrotation Yrotation
              JOINT Bip01_R_Toe11
              {
                OFFSET 2.94553 0 0
                CHANNELS 6 Xposition Yposition Zposition Zrotation Xrotation Yrotation
                JOINT Bip01_R_Toe1Nub
                {
                  OFFSET 2.52656 0 0
                  CHANNELS 6 Xposition Yposition Zposition Zrotation Xrotation Yrotation
                  End Site
                  {
                    OFFSET 0 0 0
                  }
                }
              }
            }
            JOINT Bip01_R_Toe0
            {
              OFFSET 2.09729 6.93129 0.0277901
              CHANNELS 6 Xposition Yposition Zposition Zrotation Xrotation Yrotation
              JOINT Bip01_R_Toe01
              {
                OFFSET 3.0714 0 0
                CHANNELS 6 Xposition Yposition Zposition Zrotation Xrotation Yrotation
                JOINT Bip01_R_Toe0Nub
                {
                  OFFSET 3.37999 0 0
                  CHANNELS 6 Xposition Yposition Zposition Zrotation Xrotation Yrotation
                  End Site
                  {
                    OFFSET 0 0 0
                  }
                }
              }
            }
          }
        }
      }
      JOINT Bip01_L_Thigh
      {
        OFFSET -2.07803 -0.462101 2.48614
        CHANNELS 6 Xposition Yposition Zposition Zrotation Xrotation Yrotation
        JOINT Bip01_L_Calf
        {
          OFFSET 9.47902 0 0
          CHANNELS 6 Xposition Yposition Zposition Zrotation Xrotation Yrotation
          JOINT Bip01_L_Foot
          {
            OFFSET 8.42617 0 0
            CHANNELS 6 Xposition Yposition Zposition Zrotation Xrotation Yrotation
            JOINT Bip01_L_Toe1
            {
              OFFSET 1.40151 3.97627 1.33796
              CHANNELS 6 Xposition Yposition Zposition Zrotation Xrotation Yrotation
              JOINT Bip01_L_Toe11
              {
                OFFSET 2.94554 0 0
                CHANNELS 6 Xposition Yposition Zposition Zrotation Xrotation Yrotation
                JOINT Bip01_L_Toe1Nub
                {
                  OFFSET 2.52656 0 0
                  CHANNELS 6 Xposition Yposition Zposition Zrotation Xrotation Yrotation
                  End Site
                  {
                    OFFSET 0 0 0
                  }
                }
              }
            }
            JOINT Bip01_L_Toe0
            {
              OFFSET 2.0973 6.93128 -0.0277834
              CHANNELS 6 Xposition Yposition Zposition Zrotation Xrotation Yrotation
              JOINT Bip01_L_Toe01
              {
                OFFSET 3.07141 0 0
                CHANNELS 6 Xposition Yposition Zposition Zrotation Xrotation Yrotation
                JOINT Bip01_L_Toe0Nub
                {
                  OFFSET 3.37999 0 0
                  CHANNELS 6 Xposition Yposition Zposition Zrotation Xrotation Yrotation
                  End Site
                  {
                    OFFSET 0 0 0
                  }
                }
              }
            }
          }
        }
      }
      JOINT Bip01_Spine1
      {
        OFFSET 6.17162 -0.00484467 0
        CHANNELS 6 Xposition Yposition Zposition Zrotation Xrotation Yrotation
        JOINT BN_R_Clavicle_01
        {
          OFFSET 6.15897 -2.02444 -2.78435
          CHANNELS 6 Xposition Yposition Zposition Zrotation Xrotation Yrotation
          JOINT BN_R_UpperArm_01
          {
            OFFSET 3.43915 0 0
            CHANNELS 6 Xposition Yposition Zposition Zrotation Xrotation Yrotation
            JOINT BN_R__Forearm_01
            {
              OFFSET 10.2529 0 0
              CHANNELS 6 Xposition Yposition Zposition Zrotation Xrotation Yrotation
              JOINT BN_R_Hand_01
              {
                OFFSET 16.2051 0 0
                CHANNELS 6 Xposition Yposition Zposition Zrotation Xrotation Yrotation
                JOINT BN_R_Finger_07
                {
                  OFFSET 2.2539 2.19923 0.192043
                  CHANNELS 6 Xposition Yposition Zposition Zrotation Xrotation Yrotation
                  End Site
                  {
                    OFFSET 0 0 0
                  }
                }
                JOINT BN_R_Finger_01
                {
                  OFFSET 2.17806 -1.99631 -0.219296
                  CHANNELS 6 Xposition Yposition Zposition Zrotation Xrotation Yrotation
                  End Site
                  {
                    OFFSET 0 0 0
                  }
                }
                JOINT BN_R_Finger_05
                {
                  OFFSET 3.30715 1.42802 0.17391
                  CHANNELS 6 Xposition Yposition Zposition Zrotation Xrotation Yrotation
                  End Site
                  {
                    OFFSET 0 0 0
                  }
                }
                JOINT BN_R_Finger_03
                {
                  OFFSET 3.93641 -0.769831 0.580946
                  CHANNELS 6 Xposition Yposition Zposition Zrotation Xrotation Yrotation
                  End Site
                  {
                    OFFSET 0 0 0
                  }
                }
              }
            }
          }
        }
        JOINT BN_L_Clavicle_01
        {
          OFFSET 6.15897 -2.02445 2.78458
          CHANNELS 6 Xposition Yposition Zposition Zrotation Xrotation Yrotation
          JOINT BN_L_UpperArm_01
          {
            OFFSET 3.43915 0 0
            CHANNELS 6 Xposition Yposition Zposition Zrotation Xrotation Yrotation
            JOINT BN_L__Forearm_01
            {
              OFFSET 10.2529 0 0
              CHANNELS 6 Xposition Yposition Zposition Zrotation Xrotation Yrotation
              JOINT BN_L_Hand_01
              {
                OFFSET 16.2051 0 0
                CHANNELS 6 Xposition Yposition Zposition Zrotation Xrotation Yrotation
                JOINT BN_L_Finger_05
                {
                  OFFSET 3.30715 -1.42803 0.173891
                  CHANNELS 6 Xposition Yposition Zposition Zrotation Xrotation Yrotation
                  End Site
                  {
                    OFFSET 0 0 0
                  }
                }
                JOINT BN_L_Finger_07
                {
                  OFFSET 2.2539 -2.19925 0.19203
                  CHANNELS 6 Xposition Yposition Zposition Zrotation Xrotation Yrotation
                  End Site
                  {
                    OFFSET 0 0 0
                  }
                }
                JOINT BN_L_Finger_01
                {
                  OFFSET 2.17804 1.99629 -0.219303
                  CHANNELS 6 Xposition Yposition Zposition Zrotation Xrotation Yrotation
                  End Site
                  {
                    OFFSET 0 0 0
                  }
                }
                JOINT BN_L_Finger_03
                {
                  OFFSET 3.9364 0.769825 0.580943
                  CHANNELS 6 Xposition Yposition Zposition Zrotation Xrotation Yrotation
                  End Site
                  {
                    OFFSET 0 0 0
                  }
                }
              }
            }
          }
        }
        JOINT Bip01_Neck
        {
          OFFSET 7.02381 -0.81237 0
          CHANNELS 6 Xposition Yposition Zposition Zrotation Xrotation Yrotation
          JOINT Bip01_Head
          {
            OFFSET 1.54249 1.14441e-005 0
            CHANNELS 6 Xposition Yposition Zposition Zrotation Xrotation Yrotation
            JOINT BN_Mouth_01
            {
              OFFSET 2.32836 0.166542 0
              CHANNELS 6 Xposition Yposition Zposition Zrotation Xrotation Yrotation
              End Site
              {
                OFFSET 0 0 0
              }
            }
            JOINT BN_R_Ear_01
            {
              OFFSET 3.4208 -0.773972 -2.25959
              CHANNELS 6 Xposition Yposition Zposition Zrotation Xrotation Yrotation
              End Site
              {
                OFFSET 0 0 0
              }
            }
            JOINT BN_L_Ear_01
            {
              OFFSET 3.4208 -0.773976 2.25975
              CHANNELS 6 Xposition Yposition Zposition Zrotation Xrotation Yrotation
              End Site
              {
                OFFSET 0 0 0
              }
            }
            JOINT Bip01_HeadNub
            {
              OFFSET 6.74789 0 0
              CHANNELS 6 Xposition Yposition Zposition Zrotation Xrotation Yrotation
              End Site
              {
                OFFSET 0 0 0
              }
            }
          }
        }
      }
    }
  }
}
MOTION
Frames:	4
Frame Time:	0.0333333
3.37288 66.0625 0.111999 9.68977 -87.0344 18.7108 4.76837e-007 0 -1.42109e-014 -89.9985 -0.00148264 -93.5347 -2.28978 -2.39919 5.96046e-008 -109.845 88.6786 -65.1919 9.67405 0 9.53674e-007 11.5418 0.932276 7.64487 10.5192 9.53674e-007 -1.90735e-006 16.2161 -0.418567 17.4461 8.16752 1.90735e-006 3.8147e-006 18.9388 1.83821 29.4361 2.25281 -0.00395823 -0.139342 36.2762 3.20374 3.6084 -1.66507 1.20953 -2.41569 -68.4774 -1.66284 166.764 9.47902 -3.55271e-015 -9.53675e-007 -94.5796 -6.77408e-007 8.86953e-007 8.42616 -3.8147e-006 0 -43.2393 -3.30101 -0.480686 1.40147 3.97644 -1.33748 85.448 -41.301 29.1432 2.94554 -3.8147e-006 3.8147e-006 -18.2943 -1.10346e-006 1.25033e-005 2.52655 7.10543e-015 7.10543e-015 -1.3575e-006 9.32918e-006 2.10165e-008 2.09713 6.93133 0.0285978 65.1797 1.39045e-005 -5.34395e-006 3.07141 0 1.77636e-015 -8.31659 2.95525e-007 3.79898e-008 3.37999 3.8147e-006 -0.000899315 3.62332e-007 -2.2085e-007 2.02131e-007 -1.96415 1.47459 2.31541 -51.5088 -5.86179 177.465 9.479 0 -4.76837e-007 -55.8964 4.85534e-006 8.31883e-006 8.42617 7.10543e-015 4.76837e-007 -38.5276 -2.6295 -1.13774 1.40146 3.9762 1.3382 71.6316 45.8523 -19.6046 2.94554 -0.000860214 -0.000806809 -20.3839 -0.00557054 0.0309719 2.52657 0.00079155 0.00079155 -179.965 0.00205202 0.0179098 2.09728 6.9313 -0.0273733 54.2556 5.21535e-008 -1.05551e-007 3.07141 -3.8147e-006 -4.76837e-007 -20.3732 9.19595e-006 3.53167e-006 3.37999 0 -4.76837e-007 179.961 -0.00190107 -0.00725404 6.17424 -0.00452042 -0.000254631 22.44 2.93276 -6.47265 6.15898 -2.02444 -2.78435 -176.71 15.454 77.3699 3.43915 7.6294e-006 -7.6294e-006 176.05 60.6107 -135.117 10.2529 -1.52588e-005 -5.72205e-006 -28.674 -6.96398 -1.16001 16.2051 -0.0016098 7.6294e-006 -11.3246 -0.859104 2.88483 2.25413 2.19902 0.191977 68.6926 0.537891 0.297445 2.17785 -1.99651 -0.219372 -71.0994 -0.182891 -8.37769 3.30729 1.4277 0.173811 21.8128 1.09549 -18.4416 3.93635 -0.770216 0.580809 -0.720319 0.493622 -19.6143 6.15897 -2.02445 2.78458 2.37226 11.5286 -101.413 3.43915 0 3.8147e-006 148.777 -59.8728 162.392 10.2529 -1.90735e-005 1.14441e-005 19.97 -1.02179 5.48 16.2051 -3.8147e-006 -1.90735e-006 8.1508 6.71951 9.60975 3.30715 -1.42802 0.173883 -21.8153 -1.07937 -22.9413 2.2539 -2.19924 0.192032 -68.6884 -0.541536 1.29463 2.17804 1.9963 -0.219311 71.1105 0.178831 -13.3799 3.93641 0.769835 0.580927 0.590056 -2.63942 -29.124 7.02381 -0.812374 0 10.998 -7.25137e-007 -3.74501e-009 1.54249 -7.6294e-006 4.76837e-007 -55.46 -7.25579 -2.0413 2.10592 -0.356745 0.0332334 -98.6689 0.0364227 179.969 3.42079 -0.773963 -2.25959 154.488 1.41701 -175.62 3.42079 -0.773971 2.25975 -24.6135 1.20829 -17.7841 6.74787 3.8147e-006 -5.96047e-008 6.07807e-007 -5.98431e-008 1.96304e-008 
3.34764 66.0842 0.0937679 13.9085 -87.1387 23.2195 4.76837e-007 -4.44089e-016 1.42109e-014 -89.9985 -0.00146474 -93.5347 -2.28978 -2.39919 5.96046e-008 -123.261 88.503 -51.7667 9.67405 2.33147e-015 9.53674e-007 11.416 0.840814 7.0664 10.5192 9.53674e-007 -1.90735e-006 16.5091 -0.0724794 16.3375 8.16752 1.90735e-006 3.8147e-006 19.2006 2.56445 27.5988 2.25281 -0.00395823 -0.139342 36.272 3.19201 3.61913 -1.66645 1.20989 -2.41465 -68.739 -1.61063 166.779 9.47902 0 -9.53675e-007 -94.6417 -1.0649e-005 6.73419e-008 8.42616 -3.8147e-006 0 -43.151 -3.3409 -0.466808 1.40147 3.97644 -1.33748 85.448 -41.301 29.1432 2.94554 -3.8147e-006 3.8147e-006 -18.2943 -1.08443e-006 1.25036e-005 2.52655 7.10543e-015 0 -1.3575e-006 9.32918e-006 2.10165e-008 2.09713 6.93133 0.0285978 65.0814 1.39014e-005 -5.31032e-006 3.07141 7.10544e-015 8.88179e-016 -8.31659 3.0348e-007 3.90878e-008 3.37999 3.8147e-006 -0.000899315 3.62332e-007 -2.2085e-007 2.02131e-007 -1.96414 1.47455 2.31545 -52.1118 -5.79251 177.462 9.479 -3.55271e-015 -4.76837e-007 -56.54 4.80746e-006 8.39268e-006 8.42617 0 4.76837e-007 -37.6516 -2.94471 -1.03912 1.40146 3.9762 1.3382 71.6316 45.8523 -19.6046 2.94554 -0.000860214 -0.000806809 -20.3839 -0.00557055 0.0309719 2.52657 0.00079155 0.00079155 -179.965 0.00205202 0.0179098 2.09728 6.9313 -0.0273733 54.2556 6.1848e-008 -9.94104e-008 3.07141 -3.8147e-006 -4.76837e-007 -20.3732 9.16261e-006 3.62579e-006 3.37999 7.10543e-015 -4.76837e-007 179.961 -0.00190107 -0.00725404 6.17424 -0.00452042 -0.000254631 22.4854 3.44206 -6.98767 6.15898 -2.02444 -2.78435 -176.71 15.454 77.3699 3.43915 7.6294e-006 -7.6294e-006 177.857 63.3838 -138.251 10.2529 -1.52588e-005 -5.72205e-006 -28.6177 -6.98104 -1.14974 16.2051 -0.0016098 7.6294e-006 -9.22748 -0.0425626 8.77854 2.25413 2.19902 0.191977 68.644 0.537858 6.03332 2.17785 -1.99651 -0.219372 -71.0724 -0.188476 -6.93129 3.30729 1.4277 0.173811 21.8275 1.12879 -13.9947 3.93635 -0.770216 0.580809 -0.743203 0.500751 -14.3679 6.15897 -2.02445 2.78458 2.37226 11.5286 -101.413 3.43915 -1.42109e-014 3.8147e-006 136.211 -59.4764 147.831 10.2529 -1.90735e-005 1.14441e-005 20.3549 -0.984847 5.48674 16.2051 -3.8147e-006 -1.90735e-006 5.91228 6.38992 17.5029 3.30715 -1.42802 0.173883 -21.8205 -1.10103 -20.7361 2.2539 -2.19924 0.192032 -68.6464 -0.537932 5.6714 2.17804 1.9963 -0.219311 71.0955 0.166904 -13.4429 3.93641 0.769835 0.580927 0.583624 -2.69534 -26.6027 7.02381 -0.812374 -2.91249e-010 10.998 -7.59054e-007 -7.66374e-009 1.54249 -7.6294e-006 4.76837e-007 -55.6106 -5.99949 -2.24473 2.10592 -0.356745 0.0332334 -98.1378 -0.0186462 -179.984 3.42079 -0.773963 -2.25959 153.92 0.764631 -175.645 3.42079 -0.773971 2.25975 -25.227 1.92018 -17.7537 6.74787 3.8147e-006 -5.96047e-008 6.07807e-007 -5.98431e-008 1.96304e-008 
3.3196 66.1179 0.0749148 18.018 -87.238 27.5791 4.76837e-007 0 -1.42109e-014 -89.9985 -0.00146474 -93.5347 -2.28978 -2.39919 5.96046e-008 -134.995 88.2532 -39.9453 9.67405 1.11022e-016 9.53674e-007 11.2097 0.742375 6.41049 10.5192 9.53674e-007 -1.90735e-006 16.7152 0.229395 15.0892 8.16752 1.90735e-006 3.8147e-006 19.4802 3.26835 25.7929 2.25281 -0.00395823 -0.139342 36.2191 3.1412 3.58192 -1.6678 1.21024 -2.41364 -68.8667 -1.58386 166.821 9.47902 0 -9.53675e-007 -94.657 -6.51626e-007 8.74996e-007 8.42616 -3.8147e-006 1.77636e-015 -42.9475 -3.46645 -0.446666 1.40147 3.97644 -1.33748 85.448 -41.301 29.1432 2.94554 -3.8147e-006 3.8147e-006 -18.2943 -1.07196e-006 1.25005e-005 2.52655 0 -7.10543e-015 -1.3575e-006 9.32918e-006 2.10165e-008 2.09713 6.93133 0.0285978 64.794 1.39181e-005 -5.23283e-006 3.07141 0 3.55272e-015 -8.31659 3.08389e-007 3.99539e-008 3.37999 3.8147e-006 -0.000899315 3.62332e-007 -2.2085e-007 2.02131e-007 -1.96344 1.46961 2.31932 -52.5396 -5.72022 177.508 9.479 0 -4.76837e-007 -57.0794 4.77385e-006 8.45625e-006 8.42617 1.42109e-014 4.76837e-007 -36.7141 -3.25203 -0.917174 1.40146 3.9762 1.3382 71.6315 45.8523 -19.6045 2.94554 -0.000860214 -0.000806809 -20.3839 -0.00557056 0.0309719 2.52657 0.00079155 0.00079155 -179.965 0.00205202 0.0179098 2.09728 6.9313 -0.0273733 54.2556 7.53934e-008 -9.72832e-008 3.07141 -3.8147e-006 -4.76837e-007 -20.3732 5.71129e-006 1.29128e-005 3.37999 7.10543e-015 -4.76837e-007 179.961 -0.00190107 -0.00725404 6.17424 -0.00452042 -0.000254631 22.4907 3.90494 -7.49479 6.15898 -2.02444 -2.78435 -176.71 15.454 77.3699 3.43915 7.6294e-006 -7.6294e-006 -174.564 70.036 -149.016 10.2529 -1.52588e-005 -5.72205e-006 -28.4308 -7.01491 -1.125 16.2051 -0.0016098 7.62939e-006 -3.98867 0.393046 15.3902 2.25413 2.19902 0.191977 68.58 0.526552 13.2051 2.17785 -1.99651 -0.219372 -71.0141 -0.204704 -3.27824 3.30729 1.4277 0.173811 21.8392 1.18182 -6.66405 3.93635 -0.770216 0.58081 -0.78203 0.513176 -7.76657 6.15897 -2.02445 2.78458 2.37226 11.5286 -101.413 3.43915 2.84217e-014 3.8147e-006 118.743 -59.0622 128.28 10.2529 -1.90735e-005 1.14441e-005 21.3094 -0.893041 5.50239 16.2051 -3.8147e-006 -1.90735e-006 1.75273 5.76422 25.6718 3.30715 -1.42802 0.173883 -21.8221 -1.13954 -15.1176 2.2539 -2.19924 0.192032 -68.5964 -0.528001 11.4079 2.17804 1.9963 -0.219311 71.0809 0.155163 -13.5047 3.93641 0.769835 0.580927 0.577623 -2.81733 -20.2269 7.02381 -0.812374 -5.52657e-010 10.998 -7.91224e-007 -1.1181e-008 1.54249 -7.6294e-006 4.76837e-007 -55.6219 -4.52199 -2.35452 2.10592 -0.356745 0.0332334 -96.7382 0.0235443 179.985 3.42079 -0.773963 -2.25959 153.363 0.125192 -175.675 3.42079 -0.773971 2.25975 -25.8291 2.6179 -17.7164 6.74787 3.8147e-006 -5.96047e-008 6.07807e-007 -5.98431e-008 1.96304e-008 
3.28829 66.1634 0.0549986 22.1814 -87.3409 31.96 4.76837e-007 4.44089e-016 0 -89.9986 -0.00146663 -93.5347 -2.28978 -2.39919 5.96046e-008 -143.984 87.9061 -30.7559 9.67405 6.66134e-016 9.53674e-007 10.9135 0.633032 5.66481 10.5192 9.53674e-007 -1.90735e-006 16.8373 0.501537 13.6686 8.16752 1.90735e-006 3.8147e-006 19.8808 3.76825 23.3607 2.25281 -0.00395823 -0.139342 36.1193 3.0567 3.49329 -1.67553 1.21023 -2.40833 -68.8767 -1.5783 166.89 9.47902 -1.06581e-014 -9.53675e-007 -94.6312 -1.63292e-006 7.96906e-007 8.42616 -3.8147e-006 3.55271e-015 -42.638 -3.66441 -0.423971 1.40147 3.97644 -1.33748 85.448 -41.301 29.1432 2.94554 -3.8147e-006 3.8147e-006 -18.2943 -1.06288e-006 1.2495e-005 2.52655 0 7.10543e-015 -1.3575e-006 9.32918e-006 2.10165e-008 2.09713 6.93133 0.0285978 64.3184 4.92364e-006 -9.45161e-006 3.07141 2.13163e-014 0 -8.31659 -1.13781e-006 9.95329e-006 3.37999 3.8147e-006 -0.000899315 3.62332e-007 -2.2085e-007 2.02131e-007 -1.96274 1.46462 2.32323 -52.8172 -5.64902 177.607 9.479 0 -4.76837e-007 -57.5337 4.75308e-006 8.51185e-006 8.42617 -7.10543e-015 4.76837e-007 -35.6946 -3.55084 -0.761353 1.40146 3.9762 1.3382 71.6315 45.8523 -19.6045 2.94554 -0.000860214 -0.000806809 -20.3839 -0.00557057 0.030972 2.52657 0.00079155 0.00079155 -179.965 0.00205202 0.0179098 2.09728 6.9313 -0.0273733 54.2556 1.97944e-007 -2.33961e-008 3.07141 -3.8147e-006 -4.76837e-007 -20.3732 9.09241e-006 3.79102e-006 3.37999 -7.10543e-015 -4.76837e-007 179.961 -0.00190107 -0.00725404 6.17424 -0.00452042 -0.000254631 22.4594 4.33821 -8.01284 6.15898 -2.02444 -2.78435 -176.71 15.454 77.3699 3.43915 7.6294e-006 -7.6294e-006 -148.283 77.2532 -179.406 10.2529 -1.52588e-005 -5.72205e-006 -28.1186 -7.05957 -1.08381 16.2051 -0.0016098 7.62942e-006 3.37923 0.581497 22.4448 2.25413 2.19902 0.191977 68.5047 0.502952 21.3976 2.17785 -1.99651 -0.219372 -70.9475 -0.228863 1.86391 3.30729 1.4277 0.173811 21.8462 1.226 2.6417 3.93635 -0.770216 0.58081 -0.841648 0.523005 -0.279549 6.15897 -2.02445 2.78458 2.37226 11.5286 -101.413 3.43915 5.68434e-014 3.8147e-006 99.3968 -55.727 107.555 10.2529 -1.90735e-005 1.14441e-005 22.6338 -0.765247 5.52155 16.2051 -3.8147e-006 -1.90735e-006 -3.51082 4.91649 33.8804 3.30715 -1.42802 0.173883 -21.8232 -1.17633 -7.08723 2.2539 -2.19924 0.192032 -68.5351 -0.511929 18.1459 2.17804 1.9963 -0.219311 71.0662 0.143353 -13.5672 3.93641 0.769835 0.580927 0.585571 -2.92492 -11.173 7.02381 -0.812374 -7.91622e-010 10.998 -8.23203e-007 -1.43962e-008 1.54249 -7.6294e-006 4.76837e-007 -55.5195 -2.80269 -2.39641 2.10592 -0.356745 0.0332334 -94.3847 -0.00286865 -179.994 3.42079 -0.773963 -2.25959 152.8 -0.520252 -175.711 3.42079 -0.773971 2.25975 -26.4381 3.32208 -17.6714 6.74787 3.8147e-006 -5.96047e-008 6.07807e-007 -5.98431e-008 1.96304e-008 
